<svg xmlns="http://www.w3.org/2000/svg" version="1.1" xmlns:xlink="http://www.w3.org/1999/xlink" xmlns:svgjs="http://svgjs.dev/svgjs" width="2000" height="1500" viewBox="0 0 2000 1500"><rect width="2000" height="1500" fill="#ffffff"></rect><g transform="matrix(0.75,0,0,0.75,249.090909090909,282.7536437246963)"><svg viewBox="0 0 396 247" data-background-color="#2979ff" preserveAspectRatio="xMidYMid meet" height="1247" width="2000" xmlns="http://www.w3.org/2000/svg" xmlns:xlink="http://www.w3.org/1999/xlink"><g id="tight-bounds" transform="matrix(1,0,0,1,0.2400000000000091,-0.09999999999999432)"><svg viewBox="0 0 395.52 247.2" height="247.2" width="395.52"><g><svg></svg></g><g><svg viewBox="0 0 395.52 247.2" height="247.2" width="395.52"><g transform="matrix(1,0,0,1,75.54432,67.21003918298476)"><svg viewBox="0 0 244.43135999999998 112.77992163403046" height="112.77992163403046" width="244.43135999999998"><g><svg viewBox="0 0 244.43135999999998 112.77992163403046" height="112.77992163403046" width="244.43135999999998"><g><svg viewBox="0 0 244.43135999999998 112.77992163403046" height="112.77992163403046" width="244.43135999999998"><g><svg viewBox="0 0 244.43135999999998 112.77992163403046" height="112.77992163403046" width="244.43135999999998"><g><svg viewBox="0 0 244.43135999999998 112.77992163403046" height="112.77992163403046" width="244.43135999999998"><g><svg viewBox="0 0 244.43135999999998 74.30794889074228" height="74.30794889074228" width="244.43135999999998"><g transform="matrix(1,0,0,1,0,0)"><svg width="244.43135999999998" viewBox="1.5 -36.20000076293945 119.88999938964844 36.45000076293945" height="74.30794889074228" data-palette-color="#ffffff"><path d="M15.8-25.35L15.8-21.55 10.45-21.55 10.45 0 5.55 0 5.55-21.55 1.5-21.55 1.5-25.35 5.55-25.35 5.55-27.3Q5.55-31.25 7.68-33.52 9.8-35.8 13.65-35.8L13.65-35.8Q15.05-35.8 16.5-35.4L16.5-35.4 16.5-31.1Q15.35-31.6 14.1-31.6L14.1-31.6Q10.45-31.6 10.45-27.25L10.45-27.25 10.45-25.35 15.8-25.35ZM25.3-35.35L25.3 0 20.35 0 20.35-35.35 25.3-35.35ZM37.54-25.35L37.54 0 32.59 0 32.59-25.35 37.54-25.35ZM38.14-33.1L38.14-33.1Q38.14-31.85 37.24-30.95 36.34-30.05 35.04-30.05 33.74-30.05 32.87-30.93 31.99-31.8 31.99-33.1 31.99-34.4 32.87-35.3 33.74-36.2 35.04-36.2 36.34-36.2 37.24-35.3 38.14-34.4 38.14-33.1ZM57.94-5.05L57.94-0.65Q56.29 0.25 53.89 0.25L53.89 0.25Q46.04 0.25 46.04-7.7L46.04-7.7 46.04-21.55 42.09-21.55 42.09-25.35 46.04-25.35 46.04-31.55 50.99-31.55 50.99-25.35 57.64-25.35 57.64-21.55 50.99-21.55 50.99-7.6Q50.99-3.95 54.49-3.95L54.49-3.95Q56.54-3.95 57.94-5.05L57.94-5.05ZM76.64-5.05L76.64-0.65Q74.99 0.25 72.59 0.25L72.59 0.25Q64.74 0.25 64.74-7.7L64.74-7.7 64.74-21.55 60.79-21.55 60.79-25.35 64.74-25.35 64.74-31.55 69.69-31.55 69.69-25.35 76.34-25.35 76.34-21.55 69.69-21.55 69.69-7.6Q69.69-3.95 73.19-3.95L73.19-3.95Q75.24-3.95 76.64-5.05L76.64-5.05ZM100.94-5.75L100.94-1.35Q98.14 0.25 93.54 0.25L93.54 0.25Q87.64 0.25 84.14-3.3 80.64-6.85 80.64-12.6L80.64-12.6Q80.64-18.7 83.84-22.18 87.04-25.65 91.99-25.65L91.99-25.65Q96.84-25.65 99.69-22.63 102.54-19.6 102.54-13.9L102.54-13.9Q102.54-12.35 102.24-10.65L102.24-10.65 85.59-10.65Q86.09-7.35 88.39-5.6 90.69-3.85 94.19-3.85L94.19-3.85Q98.24-3.85 100.94-5.75L100.94-5.75ZM92.09-21.6L92.09-21.6Q89.59-21.6 87.79-19.78 85.99-17.95 85.54-14.5L85.54-14.5 97.79-14.5 97.79-15.4Q97.69-18.25 96.24-19.93 94.79-21.6 92.09-21.6ZM113.19-13.5L113.19 0 108.29 0 108.29-25.35 113.19-25.35 113.19-20.9Q115.04-25.6 119.84-25.6L119.84-25.6Q120.54-25.6 121.39-25.45L121.39-25.45 121.39-20.65Q120.34-21.1 119.04-21.1L119.04-21.1Q116.49-21.1 114.84-18.85 113.19-16.6 113.19-13.5L113.19-13.5Z" opacity="1" transform="matrix(1,0,0,1,0,0)" fill="#000000" class="undefined-text-0" data-fill-palette-color="primary" id="text-0"></path></svg></g></svg></g><g transform="matrix(1,0,0,1,0,91.85027223307316)"><svg viewBox="0 0 244.43135999999998 20.929649400957306" height="20.929649400957306" width="244.43135999999998"><g transform="matrix(1,0,0,1,0,0)"><svg width="244.43135999999998" viewBox="2.1500000953674316 -34.9900016784668 504.95001220703125 43.2400016784668" height="20.929649400957306" data-palette-color="#ffffff"><path d="M33.3-1.78L33.3-1.78 33.35-3.47 33.35-7.32Q29.91-1.59 23.19-0.02L23.19-0.02Q21.07 0.46 18.25 0.46 15.43 0.46 12.41-0.71 9.4-1.88 7.13-4.1L7.13-4.1Q2.15-8.94 2.15-16.82L2.15-16.82Q2.15-24.37 7.42-29.59L7.42-29.59Q12.92-34.99 21.22-34.99L21.22-34.99Q25.42-34.99 28.81-33.42L28.81-33.42Q30.88-32.5 31.74-31.7 32.59-30.91 32.59-30.43 32.59-29.96 32.3-29.61 32.01-29.27 31.48-29.27 30.96-29.27 30.32-29.83L30.32-29.83Q28.44-31.49 27.01-32.01 25.59-32.52 24.73-32.74 23.88-32.96 23.19-33.06L23.19-33.06Q22.14-33.2 20.7-33.2 19.26-33.2 18.04-32.96L18.04-32.96 18.04-1.37Q18.31-1.34 18.58-1.34L18.58-1.34 19.07-1.34Q26.32-1.34 30.81-6.84L30.81-6.84Q32.35-8.72 33.35-11.28L33.35-11.28 33.35-13.62Q33.35-13.62 33.23-15.82L33.23-15.82Q33.23-17.11 34.25-17.11L34.25-17.11Q34.79-17.11 35.08-16.76 35.38-16.41 35.38-15.89L35.38-15.89 35.23-13.87 35.23-4.79 35.38-1Q35.38-0.42 35.05-0.07 34.72 0.27 34.28 0.27L34.28 0.27Q33.2 0.27 33.2-0.85L33.2-0.85Q33.2-1.15 33.3-1.78ZM66.41-5.93L66.41-5.93Q67.36-5.93 67.36-5.05L67.36-5.05Q67.36-4.39 66.5-3.49L66.5-3.49Q62.65 0.46 55.93 0.46L55.93 0.46Q49.9 0.46 45.78-3.17L45.78-3.17Q41.5-6.96 41.5-12.74L41.5-12.74Q41.5-18.65 45.36-22.46L45.36-22.46Q49.44-26.51 56.2-26.51L56.2-26.51Q61.62-26.51 65.31-23.22L65.31-23.22Q69.29-19.68 69.29-13.92L69.29-13.92Q69.29-13.09 69.24-12.16L69.24-12.16 53.13-12.16 53.13-1.68Q54.79-1.34 56.86-1.34L56.86-1.34Q61.25-1.34 64.36-4.25L64.36-4.25Q64.99-4.88 65.26-5.25L65.26-5.25Q65.82-5.93 66.41-5.93ZM59.89-13.94L59.89-24.27Q58.3-24.73 56.3-24.73 54.3-24.73 53.13-24.46L53.13-24.46 53.13-13.94 59.89-13.94ZM85.52 0.46L85.52 0.46Q75.95 0.46 75.95-8.28L75.95-8.28 75.93-24.29 73.12-24.17Q71.8-24.17 71.8-25.17 71.8-26.17 73.22-26.17L73.22-26.17 75.56-26.07 75.93-26.07 75.93-29.86 86.4-34.55 86.4-26.07 89.67-26.07 91.99-26.17Q93.43-26.17 93.43-25.15L93.43-25.15Q93.43-24.68 93.03-24.43 92.63-24.17 92.11-24.17L92.11-24.17 89.09-24.29 86.4-24.29 86.4-1.34Q89.26-1.39 91.16-2.98L91.16-2.98Q92.07-3.66 92.44-4.74 92.82-5.81 93.13-6.12 93.43-6.42 93.85-6.42L93.85-6.42Q94.26-6.42 94.56-6.09 94.85-5.76 94.85-5.31 94.85-4.86 94.6-4.31 94.36-3.76 93.87-3.15L93.87-3.15Q92.77-1.78 91.33-0.98L91.33-0.98Q88.72 0.46 85.52 0.46ZM114.67 5.76L114.67 5.76Q116.16 5.3 116.75 4.57L116.75 4.57Q117.58 3.59 118.75 1.05L118.75 1.05 119.31-0.24 106.01-26.07 117.11-26.07 124.05-11.33 128.05-20.68Q129.15-23.24 129.49-24.58 129.83-25.93 130.16-26.22 130.49-26.51 130.97-26.51 131.45-26.51 131.71-26.22 131.98-25.93 131.98-25.63 131.98-25.34 131.92-25.01 131.86-24.68 131.68-24.13 131.49-23.58 131.15-22.75L131.15-22.75 121.02 0.73Q119.21 4.98 117.55 6.71L117.55 6.71Q116.14 8.25 114.69 8.25 113.23 8.25 113.23 7.24 113.23 6.23 114.67 5.76ZM133.98-13.18L133.98-13.18Q133.98-16.11 135.05-18.52 136.11-20.92 137.96-22.71L137.96-22.71Q141.97-26.51 148.02-26.51L148.02-26.51Q154.2-26.51 158.08-22.56L158.08-22.56Q161.79-18.82 161.79-13.11L161.79-13.11Q161.79-7.37 157.98-3.52L157.98-3.52Q154.05 0.46 147.92 0.46L147.92 0.46Q141.94 0.46 138.01-3.32L138.01-3.32Q133.98-7.23 133.98-13.18ZM147.24-24.71L147.24-1.37Q147.44-1.34 147.63-1.34L147.63-1.34 147.97-1.34Q152.91-1.34 156.25-4.39L156.25-4.39Q159.81-7.69 159.81-13.04L159.81-13.04Q159.81-18.26 156.47-21.51L156.47-21.51Q153.17-24.73 147.95-24.73L147.95-24.73 147.58-24.73Q147.41-24.73 147.24-24.71L147.24-24.71ZM176.59 0.46L176.59 0.46Q168.02 0.46 168.02-7.91L168.02-7.91 168.02-26.07 178.47-26.07 178.47-2.17Q178.71-2.05 179.08-2.05L179.08-2.05 179.88-2.05Q181.84-2.05 184.52-4.69L184.52-4.69Q185.33-5.49 186.04-6.45L186.04-6.45 186.04-26.07 196.53-26.07 196.53 0 186.04 0 186.04-3.76Q182.06 0.46 176.59 0.46ZM204.52 0L204.52-26.07 215.01-26.07 215.01-18.41Q216.7-22.58 218.64-24.55 220.58-26.51 222.53-26.51L222.53-26.51Q223.63-26.51 224.28-25.94 224.93-25.37 224.93-24.66 224.93-23.95 224.73-23.54 224.54-23.12 224.22-22.83L224.22-22.83Q223.56-22.22 222.97-22.22L222.97-22.22Q222.05-22.22 221.61-22.41L221.61-22.41Q220.85-22.75 220.26-22.75 219.68-22.75 218.77-21.81 217.87-20.87 217.04-19.21L217.04-19.21Q215.01-15.16 215.01-10.42L215.01-10.42 215.01 0 204.52 0ZM226.17-3.27L226.17-3.27Q226.17-3.64 226.43-3.94 226.68-4.25 227.1-4.25 227.51-4.25 227.78-4L227.78-4Q227.78-4 228.39-3.44L228.39-3.44Q230.93-1.22 235.5-1.22L235.5-1.22Q238.57-1.22 239.45-2.49L239.45-2.49Q239.7-2.83 239.7-3.19 239.7-3.54 239.56-3.87 239.43-4.2 238.99-4.68 238.55-5.15 237.74-5.81L237.74-5.81 235.6-7.54Q230.27-11.69 228.3-14.28L228.3-14.28Q226.49-16.65 226.49-19.12L226.49-19.12Q226.49-22.22 229.35-24.32L229.35-24.32Q232.3-26.51 236.99-26.51L236.99-26.51Q240.28-26.51 242.19-25.76 244.09-25 244.87-24.38 245.65-23.75 245.65-23.24L245.65-23.24Q245.65-22.19 244.82-22.19L244.82-22.19Q244.43-22.19 244.1-22.47 243.77-22.75 242.8-23.43 241.82-24.1 240.21-24.49 238.6-24.88 237.21-24.88 235.82-24.88 235.24-24.44 234.67-24 234.67-23.57 234.67-23.14 234.84-22.77 235.01-22.39 235.47-21.88L235.47-21.88Q236.55-20.61 238.92-18.87 241.28-17.14 242.92-15.7 244.56-14.26 245.48-13.04L245.48-13.04Q247.17-10.84 247.17-8.59 247.17-6.35 246.34-4.75 245.51-3.15 243.97-2L243.97-2Q240.72 0.46 235.3 0.46L235.3 0.46Q230.96 0.46 228.05-1.2L228.05-1.2Q226.17-2.25 226.17-3.27ZM275.71-5.93L275.71-5.93Q276.66-5.93 276.66-5.05L276.66-5.05Q276.66-4.39 275.81-3.49L275.81-3.49Q271.95 0.46 265.23 0.46L265.23 0.46Q259.2 0.46 255.08-3.17L255.08-3.17Q250.81-6.96 250.81-12.74L250.81-12.74Q250.81-18.65 254.66-22.46L254.66-22.46Q258.74-26.51 265.5-26.51L265.5-26.51Q270.92-26.51 274.61-23.22L274.61-23.22Q278.59-19.68 278.59-13.92L278.59-13.92Q278.59-13.09 278.54-12.16L278.54-12.16 262.43-12.16 262.43-1.68Q264.09-1.34 266.16-1.34L266.16-1.34Q270.56-1.34 273.66-4.25L273.66-4.25Q274.29-4.88 274.56-5.25L274.56-5.25Q275.12-5.93 275.71-5.93ZM269.19-13.94L269.19-24.27Q267.6-24.73 265.6-24.73 263.6-24.73 262.43-24.46L262.43-24.46 262.43-13.94 269.19-13.94ZM284.79 0L284.79-34.55 295.29-34.55 295.29 0 284.79 0ZM319.09-24.19L319.09-24.19 316.48-24.29 313.77-24.29 313.77 0 303.27 0 303.3-24.29 302.91-24.29 300.59-24.19Q299.15-24.19 299.15-25.18 299.15-26.17 300.46-26.17L300.46-26.17 303.37-26.07Q303.88-30.49 307.3-32.84L307.3-32.84Q310.42-34.99 315.48-34.99L315.48-34.99Q320.21-34.99 322-33.11L322-33.11Q322.49-32.59 322.49-32.13L322.49-32.13Q322.49-31.05 321.39-31.05L321.39-31.05Q320.85-31.05 320.34-31.42L320.34-31.42 319.46-32.03Q318.04-33.08 316.41-33.18L316.41-33.18Q315.97-33.2 315.49-33.2 315.01-33.2 314.6-33.15 314.18-33.11 313.77-33.06L313.77-33.06 313.77-26.07 315.89-26.07 319.17-26.17Q320.48-26.17 320.48-25.18 320.48-24.19 319.09-24.19ZM354.74-26.51L354.74-26.51Q363.33-26.51 363.33-18.16L363.33-18.16 363.33 0 352.83 0 352.83-23.75Q352.39-24.05 351.67-24.05 350.95-24.05 350.17-23.71 349.39-23.36 348.54-22.75L348.54-22.75Q346.7-21.41 345.29-19.38L345.29-19.38 345.29 0 334.79 0 334.79-34.55 345.29-34.55 345.29-21.95Q349.46-26.51 354.74-26.51ZM393.97-5.93L393.97-5.93Q394.92-5.93 394.92-5.05L394.92-5.05Q394.92-4.39 394.07-3.49L394.07-3.49Q390.21 0.46 383.5 0.46L383.5 0.46Q377.47 0.46 373.34-3.17L373.34-3.17Q369.07-6.96 369.07-12.74L369.07-12.74Q369.07-18.65 372.92-22.46L372.92-22.46Q377-26.51 383.76-26.51L383.76-26.51Q389.18-26.51 392.87-23.22L392.87-23.22Q396.85-19.68 396.85-13.92L396.85-13.92Q396.85-13.09 396.8-12.16L396.8-12.16 380.69-12.16 380.69-1.68Q382.35-1.34 384.42-1.34L384.42-1.34Q388.82-1.34 391.92-4.25L391.92-4.25Q392.55-4.88 392.82-5.25L392.82-5.25Q393.38-5.93 393.97-5.93ZM387.45-13.94L387.45-24.27Q385.86-24.73 383.86-24.73 381.86-24.73 380.69-24.46L380.69-24.46 380.69-13.94 387.45-13.94ZM419.38 0L419.38-1.61Q416.26 0.46 412.45 0.46L412.45 0.46Q407.4 0.46 404.35-2.08L404.35-2.08Q401.17-4.69 401.17-9.33L401.17-9.33Q401.17-13.43 404.32-16.06L404.32-16.06Q407.54-18.73 412.79-18.73L412.79-18.73Q416.31-18.73 419.38-17.38L419.38-17.38 419.38-24.1Q417.16-24.73 415.47-24.73 413.77-24.73 412.6-24.58 411.43-24.44 410.38-24.15L410.38-24.15Q408.11-23.51 406.93-22.44L406.93-22.44Q406.25-21.8 405.69-21.8 405.13-21.8 404.83-22.08 404.54-22.36 404.54-22.71 404.54-23.05 404.66-23.33 404.79-23.61 405.13-23.9L405.13-23.9Q405.86-24.54 407.57-25.17L407.57-25.17Q411.11-26.51 414.67-26.51L414.67-26.51Q425.51-26.51 428.52-21.34L428.52-21.34Q429.83-19.04 429.83-15.31L429.83-15.31 429.83 0 419.38 0ZM419.38-3.71L419.38-15.48Q416.31-16.97 413.26-16.97L413.26-16.97Q412.77-16.97 412.33-16.89L412.33-16.89 412.33-1.37Q412.45-1.34 412.6-1.34 412.74-1.34 412.89-1.34L412.89-1.34Q416.24-1.34 419.38-3.71L419.38-3.71ZM437.48 0L437.48-26.07 447.97-26.07 447.97-18.41Q449.66-22.58 451.6-24.55 453.54-26.51 455.49-26.51L455.49-26.51Q456.59-26.51 457.24-25.94 457.89-25.37 457.89-24.66 457.89-23.95 457.69-23.54 457.5-23.12 457.18-22.83L457.18-22.83Q456.52-22.22 455.93-22.22L455.93-22.22Q455-22.22 454.57-22.41L454.57-22.41Q453.81-22.75 453.22-22.75 452.64-22.75 451.73-21.81 450.83-20.87 450-19.21L450-19.21Q447.97-15.16 447.97-10.42L447.97-10.42 447.97 0 437.48 0ZM479.52 0L479.52-1.34Q476.46 0.46 473.06 0.46 469.65 0.46 467.08-0.55 464.5-1.56 462.67-3.37L462.67-3.37Q458.86-7.15 458.86-13.21L458.86-13.21Q458.86-18.82 462.62-22.56L462.62-22.56Q466.63-26.51 473.07-26.51L473.07-26.51Q476.49-26.51 479.52-25.02L479.52-25.02 479.52-34.55 489.58-34.55 489.58 0 479.52 0ZM472.58-24.73L472.58-24.73Q471.83-24.73 471.14-24.63L471.14-24.63 471.14-1.49Q472.02-1.34 473.05-1.34L473.05-1.34Q476.44-1.34 479.52-3.49L479.52-3.49 479.52-22.85Q476.22-24.73 472.58-24.73ZM496.07-2.66L496.07-2.66Q495.7-3.64 495.7-4.71 495.7-5.79 496.13-6.68 496.56-7.57 497.34-8.25L497.34-8.25Q499-9.74 501.49-9.74L501.49-9.74Q504.05-9.74 505.64-8.06L505.64-8.06Q507.1-6.52 507.1-4.44L507.1-4.44Q507.1-2.37 505.44-0.98L505.44-0.98Q503.74 0.46 501.34 0.46L501.34 0.46Q497.29 0.46 496.07-2.66Z" opacity="1" transform="matrix(1,0,0,1,0,0)" fill="#000000" class="undefined-text-1" data-fill-palette-color="secondary" id="text-1"></path></svg></g></svg></g></svg></g></svg></g></svg></g></svg></g></svg></g><g><path d="M245.816 0c68.262 0 123.6 55.338 123.6 123.6 0 68.262-55.338 123.6-123.6 123.6-44.348 0-83.241-23.356-105.049-58.439l3.967 0c21.412 33.147 58.684 55.088 101.082 55.088 66.412 0 120.249-53.837 120.249-120.249 0-66.412-53.837-120.249-120.249-120.249-42.397 0-79.669 21.941-101.082 55.088l-3.967 0c21.808-35.083 60.701-58.439 105.049-58.439z" fill="#000000" stroke="transparent" data-fill-palette-color="tertiary"></path></g></svg></g><defs></defs></svg><rect width="395.52" height="247.2" fill="none" stroke="none" visibility="hidden"></rect></g></svg></g></svg>